<svg version="1.2" xmlns="http://www.w3.org/2000/svg" viewBox="0 0 1000 1000" width="1000" height="1000">
	<title>8598083-ai</title>
	<defs>
		<clipPath clipPathUnits="userSpaceOnUse" id="cp1">
			<path d="m251.33 257.18l-115.11 202.5c-42.63 74.99-32.12 168.91 26.03 232.63l157.02 172.05c58.15 63.72 150.71 82.75 229.28 47.13l212.15-96.17c78.57-35.61 125.27-117.77 115.68-203.49l-25.9-231.49c-9.59-85.73-73.29-155.53-157.79-172.9l-228.16-46.9c-84.5-17.37-170.57 21.64-213.2 96.64z"/>
		</clipPath>
		<clipPath clipPathUnits="userSpaceOnUse" id="cp2">
			<path d="m1000 1000h-1000v-1000h1000z"/>
		</clipPath>
		<clipPath clipPathUnits="userSpaceOnUse" id="cp3">
			<path d="m502.64 202.3c-3.33-5.21-4.66-10.07-4.66-10.07 0 0 32.2-26.78 50.69 10.88 0 0-5.01 6.31-13.73 9.68 0 0-15.87-8.46-32.3-10.49z"/>
		</clipPath>
	</defs>
	<style>
		.s0 { fill: #f9e1ba } 
		.s1 { fill: #7d8af5 } 
		.s2 { fill: #eeeff0 } 
		.s3 { fill: #a3b0f7 } 
		.s4 { fill: #f2ce99 } 
		.s5 { fill: none;stroke: #56357c;stroke-linecap: round;stroke-linejoin: round;stroke-width: 1.5 } 
		.s6 { fill: #56357c } 
		.s7 { fill: #d3dbe2 } 
		.s8 { fill: #e493ad } 
		.s9 { fill: #d36e92 } 
		.s10 { fill: #ffffff } 
		.s11 { fill: none;stroke: #56357c;stroke-linecap: round;stroke-linejoin: round;stroke-width: 2 } 
		.s12 { fill: #5669d8 } 
	</style>
	<g id="OBJECTS">
		<g id="&lt;Group&gt;">
			<g id="&lt;Clip Group&gt;" clip-path="url(#cp1)">
				<g id="&lt;Group&gt;">
					<path id="&lt;Path&gt;" class="s0" d="m404.9 117.3c0 0-62.4 134.8 7.1 112.6 90.6-29 64 32.1 130 64 32.8 15.8 90.6-87.7 141.5-50.9 50.9 36.7 81.5-9.9 78.3-48.3-3.2-38.5-178.9-171-356.9-77.4z"/>
					<path id="&lt;Path&gt;" class="s0" d="m782.1 879.7c0 0-32.9-48.2-18.9-115.8 13.9-67.6 55.5-95.3 32.7-145.4-22.7-50.1 141.2-12.6 87.9 111.2-53.4 123.9-101.7 150-101.7 150z"/>
					<path id="&lt;Path&gt;" class="s1" d="m118 615.3c0 0 40.2 33 79.7 39.2 39.5 6.3 60.9 88.6 25 94.9-35.8 6.4-84.4 29.2-99.5 88.7-15.1 59.6-56.5-147.8-5.2-222.8z"/>
				</g>
			</g>
		</g>
		<g id="&lt;Group&gt;">
			<path id="&lt;Path&gt;" class="s2" d="m253.7 608.5l-12.7 3.9 6.7 11.4-3 13 13.2-0.1 9.7 9.1 6.6-11.5 12.7-3.9-6.7-11.4 3.1-12.9h-13.3l-9.7-9.1z"/>
			<path id="&lt;Path&gt;" class="s2" d="m432.2 189.6l-8.1-1.5 0.4 8.2-5.4 6.3 7.4 3.7 2.7 7.8 6.9-4.4 8.1 1.5-0.4-8.2 5.4-6.3-7.3-3.7-2.8-7.8z"/>
			<path id="&lt;Path&gt;" class="s0" d="m207.5 708.5c0 5 4 9 9 9 5 0 9.1-4 9.1-9 0-5-4.1-9.1-9.1-9.1-5 0-9 4.1-9 9.1z"/>
			<path id="&lt;Path&gt;" class="s2" d="m690.6 342.5c0 5 4 9.1 9 9.1 5 0 9-4.1 9-9.1 0-5-4-9-9-9-5 0-9 4-9 9z"/>
			<path id="&lt;Path&gt;" class="s1" d="m671.3 254.6l36.5 31.5 20.2-23.4-36.6-31.5z"/>
			<path id="&lt;Path&gt;" class="s0" d="m394.5 265.2l-28.4 49.1 18.6 10.7 28.3-49.1z"/>
			<path id="&lt;Path&gt;" class="s3" d="m784.8 688.8l-35.4 25.9 9.8 13.4 35.4-25.9z"/>
		</g>
		<g id="&lt;Clip Group&gt;" clip-path="url(#cp2)">
			<g id="&lt;Group&gt;">
				<g id="&lt;Group&gt;">
					<path id="&lt;Path&gt;" class="s0" d="m642.6 867.6c0 0 66.1 201.3 76 267.9 0 0-113.2 25.7-173.4 30.8 0 0-40-151.8-56.7-205 0 0-2.5 15.3-33.8 217.8 0 0-71.9-15.4-165.6-55.8 0 0 14.6-230 46.3-328.2 31.8-98.2 236.1-83.2 307.2 72.5z"/>
					<g id="&lt;Group&gt;">
						<path id="&lt;Path&gt;" class="s4" d="m495 788.2c0 0-22.6 93-36.8 130.5 0 0-67.2-2.5-103.9-10.1l78.2-139.9z"/>
						<path id="&lt;Path&gt;" class="s4" d="m588.9 879l58.9 271.3 70.8-14.8c0 0-41.5-182.6-76-267.9z"/>
						<path id="&lt;Path&gt;" class="s4" d="m500 955.7l67.7 208.1-22.5 2.5-56.7-205z"/>
						<path id="&lt;Path&gt;" class="s4" d="m486.1 976.6l-53.6 197 22.2 5.5z"/>
					</g>
					<path id="&lt;Path&gt;" class="s5" d="m488.5 961.3l44.6-21.7"/>
					<path id="&lt;Path&gt;" class="s5" d="m347.3 1146.5c0 0 49.4-288.5 79.5-404.2"/>
					<path id="&lt;Path&gt;" class="s5" d="m601.2 805.3c0 0 42.4 148.2 93.3 335.5"/>
					<path id="&lt;Path&gt;" class="s5" d="m485 983.3l-9.4 60.8"/>
					<path id="&lt;Path&gt;" class="s6" d="m492.1 972.9l16.9-21.6-20.5 10z"/>
				</g>
				<path id="&lt;Path&gt;" class="s2" d="m483.2 360.8c0 0 38.1 39.1 104.6 14.9 0 0 94.6 31.9 91.7 80.1-2.9 48.3-36.8 367.2-36.8 367.2 0 0-138.3-78.4-283.2-107.3 0 0 37.8-231 123.7-354.9z"/>
				<path id="&lt;Path&gt;" class="s7" d="m498.9 374c0 0-11.9 56.5 31.4 109.8l-26.4 268.8-65.5-10.3c0 0 21.5-389.4 34.1-390.7 0 0 18.4 17.6 26.4 22.4z"/>
				<path id="&lt;Path&gt;" class="s6" d="m640.1 841.9l2.6-18.9c0 0-141.9-94.1-283.2-107.3 0 0-8.5 14.9-12.2 28 0 0 222.6 62.6 292.8 98.2z"/>
				<g id="&lt;Group&gt;">
					<path id="&lt;Path&gt;" class="s8" d="m496.8 143c-2.3 10.6-4.9 24-4.9 24 0 0-15.6-11.5-25.8 18.9-10.8 32.3 11.4 36.2 11.4 36.2 0 0-5.1 17.5-0.7 30.2 5.5 15.7 21.6 25.2 21.6 25.2l-10.1 55.1-5.1 28.2c0 0 18.8 21.3 47.6 26.3 29.1 3.5 57-11.4 57-11.4l3.4-32.3 5.5-51.5c0 0 18.1-4.4 27.9-17.9 7.9-10.8 8.1-29.1 8.1-29.1 0 0 22.4 2.6 21.3-31.4-1-32-19.3-25.5-19.3-25.5 0 0 1.4-13.6 2.2-24.4 0 0 2.2-49.1-63-58.6-65.1-9.6-77.1 38-77.1 38z"/>
					<path id="&lt;Path&gt;" class="s9" d="m573.9 105c65.2 9.5 63 58.6 63 58.6-0.8 10.8-2.2 24.4-2.2 24.4 0 0 18.3-6.5 19.3 25.5 1.1 34-21.3 31.4-21.3 31.4 0 0-0.2 18.3-8.1 29.1-9.8 13.5-27.9 17.9-27.9 17.9l-5.5 51.5-3.4 32.3c0 0-4.5 2.4-11.7 5l6.6-85.6c0 0 36.8-19.7 38.4-56 0 0 4.8-52.2 4.8-66.1 0-14-5.9-54-52-68z"/>
					<path id="&lt;Path&gt;" class="s6" d="m504.8 281.1c0 0 39.7 24.4 84.7 12.5 0 0-12 21.8-45.8 16.8-33.7-4.9-38.9-29.3-38.9-29.3z"/>
					<g id="&lt;Group&gt;">
						<path id="&lt;Path&gt;" class="s5" d="m634.4 228.5c0 0 6.3-3.1 5.1-8.2-1.1-5.2-5.6-4.4-5-9.7"/>
					</g>
					<g id="&lt;Group&gt;">
						<path id="&lt;Path&gt;" class="s5" d="m637.9 197.7c0 0 10.2-3 9.6 15.3"/>
					</g>
					<g id="&lt;Group&gt;">
						<path id="&lt;Path&gt;" class="s5" d="m479.5 207.2c0 0-5.2-4.8-2.6-9.4 2.6-4.6 6.7-2.5 7.6-7.8"/>
					</g>
					<g id="&lt;Group&gt;">
						<path id="&lt;Path&gt;" class="s5" d="m486.1 175.4c0 0-8.9-5.9-13.6 11.9"/>
					</g>
					<g id="&lt;Group&gt;">
						<g id="&lt;Group&gt;">
							<path id="&lt;Path&gt;" class="s5" d="m542.9 220.4c0 0-9.9 5.2-2.4 12.4"/>
						</g>
						<g id="&lt;Group&gt;">
							<path id="&lt;Path&gt;" class="s5" d="m569 237c9.3-4.7 1.3-12.6 1.3-12.6 0 0-5.4-4.7-2.6-16.9"/>
						</g>
						<g id="&lt;Group&gt;">
							<path id="&lt;Path&gt;" class="s5" d="m546.6 231.8c0 0 2.5-2.5 5.3 0.9"/>
						</g>
						<g id="&lt;Group&gt;">
							<path id="&lt;Path&gt;" class="s5" d="m558.4 233.5c0 0 2.5-2.4 5.3 1"/>
						</g>
					</g>
					<g id="&lt;Group&gt;">
						<g id="&lt;Group&gt;">
							<path id="&lt;Path&gt;" class="s6" d="m572.3 213.5c2-4.8 5.7-8.6 10.4-11.2 4.8-2.6 10.7-3.5 16-2.5 2.7 0.5 5.1 1.3 7.6 2.4 2.4 1.1 4.7 2.5 6.7 4.3 4 3.5 7.1 8.3 7.3 13.7 0 0.4-0.3 0.8-0.8 0.8-0.2 0-0.4-0.1-0.6-0.3l-0.1-0.1c-3-3.6-6.4-6.1-10-8.1-1.8-1-3.8-1.7-5.7-2.4-1.9-0.7-4-1.3-6-1.7-3.8-0.8-7.7-0.8-11.7 0.3-4 1-8 3-11.9 5.7h-0.1c-0.3 0.2-0.8 0.2-1-0.2-0.2-0.2-0.2-0.5-0.1-0.7z"/>
						</g>
					</g>
					<g id="&lt;Group&gt;">
						<path id="&lt;Path&gt;" class="s10" d="m502.6 202.3c-3.3-5.2-4.6-10.1-4.6-10.1 0 0 32.1-26.8 50.7 10.9 0 0-5.1 6.3-13.8 9.7 0 0-15-8.2-32.3-10.5z"/>
						<g id="&lt;Group&gt;">
							<g id="&lt;Clip Group&gt;" clip-path="url(#cp3)">
								<path id="&lt;Path&gt;" class="s6" d="m506.7 197.2c-1.3 9 5 17.4 14 18.7 9 1.3 17.4-4.9 18.7-14 1.3-9-5-17.4-14-18.7-9-1.3-17.4 5-18.7 14z"/>
							</g>
						</g>
						<g id="&lt;Group&gt;">
							<path id="&lt;Path&gt;" class="s6" d="m547.9 203.3c-2.6-4.9-5.6-9.4-9.2-12.8-3.6-3.5-7.8-5.6-12.3-6.4-4.8-0.8-9.6-0.5-14.2 0.9-4.7 1.5-9.3 4.1-13.6 7.6l-0.1 0.1c-0.3 0.2-0.8 0.2-1-0.1-0.2-0.2-0.2-0.5-0.2-0.8 2-5.7 6.4-10.5 12-13.5 5.6-3.1 12.4-3.9 18.6-2.7 3.3 0.6 6.4 1.8 9.2 3.6 2.7 1.8 5.1 4.2 6.9 6.7 3.6 5.2 5.4 11.1 5.4 17.1 0 0.4-0.3 0.7-0.8 0.7-0.3 0-0.5-0.1-0.6-0.4z"/>
						</g>
					</g>
					<g id="&lt;Group&gt;">
						<path id="&lt;Path&gt;" class="s6" d="m525.1 238c0 0 28.7 5.8 57 8.6 0 0-11.5 24.1-32.3 21-22.1-3.3-24.7-29.6-24.7-29.6z"/>
						<path id="&lt;Path&gt;" class="s9" d="m530.9 254.8c0 0 15.9-1.2 20.2 4.9 0 0 5.6-4 19.1 1.8 0 0-6.5 7.8-20.4 6.1-13.7-1.6-18.9-12.8-18.9-12.8z"/>
						<path id="&lt;Path&gt;" class="s2" d="m525.1 238c0 0 26 20.8 57 8.6 0 0-28.6-4.9-57-8.6z"/>
					</g>
					<path id="&lt;Path&gt;" class="s6" d="m613 177.4c5.3 2 9.9-4.2 6.4-8.8-4.2-5.6-10.6-11.3-20.3-13.6-21.7-5.1-12.8 12.9 1.2 17.8 4.6 1.5 8.9 3.1 12.7 4.6z"/>
					<path id="&lt;Path&gt;" class="s6" d="m518.1 158.6c-5.7-0.8-6.7-8.4-1.5-10.8 6.3-3 14.7-4.9 24.3-2.3 21.6 5.7 5.2 17.4-9.5 15-4.7-0.8-9.3-1.4-13.3-1.9z"/>
					<path id="&lt;Path&gt;" class="s11" d="m592.7 189.4c0 0 8.6-2.5 14.7 2.5"/>
					<path id="&lt;Path&gt;" class="s6" d="m483.4 165c0 0 8.8-0.6 6.8 7.5-2.8 11.9 2.5 6.2 6.6 5.3 4.1-1 5.7-2.6 9.2-20.8 3.6-18.3 22.6-42.7 34.3-38 11.8 4.7 12.1 19.1 4.4 20.2 0 0 32.5 5.7 27-20.8 0 0 5.2 26.2 35.7 21.2 0 0 0.9 20.1 19.6 28.2 0 0-0.6 13.4-1.8 26.9 0 0-0.7 3.9 5.4 3.9 6 0 2.7-3.8 6.4-11 0 0 9.7-15.5 14.7-21.7 0 0 13.5 1.1 18.5-15.2 5-16.3-2.9-24.6-2.9-24.6 0 0 9.6-13.9-6.7-27.3-11.7-9.6-26.2-3.6-26.2-3.6 0 0 1.7-19.3-7-21.7 0 0-3 12.4-10.3 13 0 0-9.5-35.4-42.9-32.2-27.6 2.6-33.8 23-33.8 23 0 0-8.2-2.6-2.7-15 0 0-10.8 7.6-10.8 17.6 0 0-4.9-5-11.3-5 0 0 3 3.3 1.7 10 0 0-35.8-12.2-40.9 27.5 0 0-3.8 26 10.2 29.1z"/>
					<path id="&lt;Path&gt;" class="s5" d="m654.4 223.1c0.9 0.6 1.8 1.5 2.4 2.6 1.6 2.8 1.3 6.1-0.7 7.2-2 1.2-5-0.2-6.6-3-1.7-2.8-1.3-6 0.7-7.2"/>
					<path id="&lt;Path&gt;" class="s6" d="m644.2 234c0 1.9-1.5 3.4-3.4 3.4-1.9 0-3.4-1.5-3.4-3.4 0-1.9 1.5-3.4 3.4-3.4 1.9 0 3.4 1.5 3.4 3.4z"/>
					<path id="&lt;Path&gt;" class="s9" d="m467.1 215.3c0 0 7.3-1.6 13.3-4.5l-2.9 11.3c0 0-5.8-0.5-10.4-6.8z"/>
				</g>
				<g id="&lt;Group&gt;">
					<path id="&lt;Path&gt;" class="s8" d="m757 412.7l8.2 63.8c0 0 55.2-2.5 63.8-27.1 8.5-24.6 19.6-20.5-28.1-86.4z"/>
					<path id="&lt;Path&gt;" class="s9" d="m765.2 476.5c0 0 55.2-2.5 63.8-27.1 8.1-23.5 18.7-20.8-22.1-78 0 0 7.4 67.3-41.7 105.1z"/>
					<path id="&lt;Path&gt;" class="s8" d="m800.9 363c0 0-8.6 37.2-24.5 51-15.9 13.9-37.5 7-32.2-30.6 0 0-27.2 3.9-18-17.1 0 0-14.9-7-5.1-24.3 0 0-8.4-7.2 4.7-18.6 0 0-7.6-13.3 11-18.2 0 0 15.9-2 28.6-3.6 0 0 5.7-6.4 6.7-13.5 1.1-7.2 4.5-28.2 20-24.3 15.6 3.9 6.4 12.4 2.3 29 0 0-0.4 4.3 0 9.6 0.4 5.3-2 16.9-2 16.9 0 0 5.5 18.1 8.5 43.7z"/>
					<path id="&lt;Path&gt;" class="s5" d="m765.6 302.1c0 0 22.6 0 27 17.7"/>
					<path id="&lt;Path&gt;" class="s5" d="m726 323.9c0 0 8.1-5.4 38.2-1.7"/>
					<path id="&lt;Path&gt;" class="s5" d="m764.2 339.1c0 0-36.1-4.3-42.9 3.4"/>
					<path id="&lt;Path&gt;" class="s5" d="m726.4 366.8c0 0 6.2-7.9 29.8-7.9"/>
				</g>
				<g id="&lt;Group&gt;">
					<path id="&lt;Path&gt;" class="s8" d="m279.2 345.7l-29.6 57.1c0 0-51.1-21.3-50.7-47.4 0.4-26-11.4-25.9 56-71.4z"/>
					<path id="&lt;Path&gt;" class="s8" d="m254.9 284c0 0-4.6 37.8 5.6 56.3 10.1 18.5 32.8 19.4 40.7-17.7 0 0 24.2 12.9 22.8-10 0 0 16.4-1.4 13.1-21 0 0 10.3-3.9 2-19.1 0 0 11.6-9.9-4.2-20.9 0 0-14.2-7.3-25.5-13.2 0 0-3.2-7.9-1.8-15 1.5-7 5.5-28-10.4-29.7-15.9-1.7-10.2 9.6-12.1 26.5 0 0-1.1 4.2-3.3 9-2.2 4.9-3.9 16.6-3.9 16.6 0 0-11.4 15.1-23 38.2z"/>
					<path id="&lt;Path&gt;" class="s5" d="m308.9 238.8c0 0-21.2-7.8-31.4 7.4"/>
					<path id="&lt;Path&gt;" class="s5" d="m338.7 272.9c0 0-5.8-7.8-35.3-14.7"/>
					<path id="&lt;Path&gt;" class="s5" d="m297.6 274.1c0 0 35.4 8.3 39.1 17.9"/>
					<path id="&lt;Path&gt;" class="s5" d="m323.6 313c0 0-3.1-9.5-25.2-17.6"/>
					<path id="&lt;Path&gt;" class="s9" d="m243.3 358.8l29-10.2c0 0 16.2-3.5 28.9-26 0 0-5 32.4-25.7 30.1l-17.5 33.8z"/>
				</g>
				<g id="&lt;Group&gt;">
					<path id="&lt;Path&gt;" class="s1" d="m510.5 482.7c0 104-92 423.8-92 423.8-105.9 10-195.1-16-195.1-16 35-131.6 96.6-308.3 96.6-308.3-181.2 32.9-239.4 23.2-248.8-63.3-9.3-86.5 146-207.6 146-207.6 3.9 34.7 40.6 45.9 53.3 48.8 2 0.5 2.9 2.8 1.7 4.5-11.6 16-20.3 36.4-20.3 36.4 0 0 85.3-53 122.8-53 18.8 0 44 2.9 64.6 5.8 2.9 0.4 11.7-53.1 53.7-46.4l-9.8 53.4c-7.2 17.9-15.2 61.9 27.3 121.9z"/>
					<path id="&lt;Path&gt;" class="s12" d="m320 582.2c-84.2 15.3-141.8 21.4-180.3 14.8 0 0 126.2-50.3 203.7-116.4 0 0-8.7 58.3-23.4 101.6z"/>
					<path id="&lt;Path&gt;" class="s12" d="m443.1 445.3c0 0 6.2 50 38 64.9l2.1-11.9c0 0-22.9-15.5-40.1-53z"/>
					<path id="&lt;Path&gt;" class="s5" d="m439.3 353.8c0 0-30.4 82.5 43.9 144.5 0 0-34.2 204-101.4 386.8"/>
					<path id="&lt;Path&gt;" class="s5" d="m305.2 625.4l23.6-68.3"/>
					<path id="&lt;Path&gt;" class="s6" d="m320 582.2l-37.6 6.5 45.7-29.5z"/>
					<path id="&lt;Path&gt;" class="s12" d="m251.9 401l-25.6 56 73.9-83z"/>
					<path id="&lt;Path&gt;" class="s5" d="m261 382.7c0 0-26.4 47.9-43.8 98.7"/>
					<path id="&lt;Path&gt;" class="s5" d="m189.1 335.2c0 0 5.2 40.6 60.5 67.6"/>
				</g>
				<g id="&lt;Group&gt;">
					<path id="&lt;Path&gt;" class="s1" d="m829.1 408c1.6-2.3 5.1-2.2 6.5 0.2 123.7 206.1 55.3 261.1-11.5 265.7-67.5 4.6-114.7-45.2-114.7-45.2-9.2 124.1-13.8 243.7-13.8 243.7-87.4 33.7-168.6 36.4-168.6 36.4l3.3-425c63.7-43.8 59.2-97.8 57.5-108.1l5.5-51.8c30.6 8.6 32.7 47.7 32.7 47.7 0 0 40.4 5.8 68 31.9 27.6 26 67.2 77.3 67.2 77.3 0 0-2.2-12.8-2.3-24.3-0.1-2.2 1.7-3.9 3.8-3.9 10-0.1 38.3-4.4 66.4-44.6z"/>
					<path id="&lt;Path&gt;" class="s12" d="m709.4 628.7c0 0 47.2 49.8 114.7 45.2 21-1.5 42.3-7.9 57.6-22.5 0 0 56-42.5-7.2-170.3 0 0 37.7 143.8-101.9 139.9-40.8-2-60.2-14.5-60.2-14.5z"/>
					<path id="&lt;Path&gt;" class="s5" d="m708.4 641.5l7.5-60.8"/>
					<path id="&lt;Path&gt;" class="s5" d="m588.9 615.1c0 3.4-2.8 6.1-6.2 6.1-3.4 0-6.1-2.7-6.1-6.1 0-3.4 2.7-6.2 6.1-6.2 3.4 0 6.2 2.8 6.2 6.2z"/>
					<path id="&lt;Path&gt;" class="s5" d="m595 666.2c0 3.4-2.7 6.1-6.1 6.1-3.4 0-6.2-2.7-6.2-6.1 0-3.4 2.8-6.2 6.2-6.2 3.4 0 6.1 2.8 6.1 6.2z"/>
					<path id="&lt;Path&gt;" class="s5" d="m601.2 715.7c0 3.4-2.8 6.2-6.2 6.2-3.4 0-6.1-2.8-6.1-6.2 0-3.4 2.7-6.1 6.1-6.1 3.4 0 6.2 2.7 6.2 6.1z"/>
					<path id="&lt;Path&gt;" class="s6" d="m714.2 594.6l17.5 52.3-22.7-16.6z"/>
					<path id="&lt;Path&gt;" class="s12" d="m761.2 480.8l-45.3-54.6 52 109.8z"/>
					<path id="&lt;Path&gt;" class="s5" d="m759.3 465.4c0 0 7.8 66.4 12.1 97.4"/>
					<path id="&lt;Path&gt;" class="s5" d="m761.2 480.8c0 0 54.6 20.1 89.7-46.1"/>
					<path id="&lt;Path&gt;" class="s12" d="m631.4 372.6l-5.4-1c0 0-2.6 98.8-74.2 132l4.5 105.3 5.8-98.9c0 0 81.1-27.7 69.3-137.4z"/>
					<path id="&lt;Path&gt;" class="s5" d="m626 371.6c0 0-5.2 104.3-74.2 132 0 0 10.5 248.5 17.1 375.4"/>
				</g>
				<g id="&lt;Group&gt;">
					<path id="&lt;Path&gt;" class="s5" d="m796.9 252.6c0 0 3.6-15.3 19.1-22.3"/>
					<path id="&lt;Path&gt;" class="s5" d="m817 265.9c0 0 5.1-4.2 15.2-4.4"/>
					<path id="&lt;Path&gt;" class="s5" d="m774.5 251.2c0 0-4.6-10.8-2.9-17.9"/>
					<path id="&lt;Path&gt;" class="s5" d="m792.6 233.3c0 1.4-1.2 2.6-2.6 2.6-1.4 0-2.6-1.2-2.6-2.6 0-1.5 1.2-2.6 2.6-2.6 1.4 0 2.6 1.1 2.6 2.6z"/>
					<path id="&lt;Path&gt;" class="s6" d="m784.5 250.6c0 1.1-0.9 2-2 2-1.1 0-2-0.9-2-2 0-1.1 0.9-2 2-2 1.1 0 2 0.9 2 2z"/>
					<path id="&lt;Path&gt;" class="s6" d="m818.9 239.4c0 1.1-0.8 2-1.9 2-1.1 0-2-0.9-2-2 0-1 0.9-1.9 2-1.9 1.1 0 1.9 0.9 1.9 1.9z"/>
					<path id="&lt;Path&gt;" class="s5" d="m817.5 253.2c0 1.4-1.1 2.6-2.6 2.6-1.4 0-2.6-1.2-2.6-2.6 0-1.4 1.2-2.6 2.6-2.6 1.5 0 2.6 1.2 2.6 2.6z"/>
					<path id="&lt;Path&gt;" class="s5" d="m777.8 269.9c0 0 5.8-10.4 16.3-5.6"/>
				</g>
				<g id="&lt;Group&gt;">
					<path id="&lt;Path&gt;" class="s5" d="m285 183.6c0 0-5.3-14.8-21.5-20"/>
					<path id="&lt;Path&gt;" class="s5" d="m266.5 199.1c0 0-5.6-3.6-15.6-2.7"/>
					<path id="&lt;Path&gt;" class="s5" d="m307 179.7c0 0 3.5-11.2 1-18.1"/>
					<path id="&lt;Path&gt;" class="s5" d="m287.1 164c0.2 1.4 1.5 2.4 2.9 2.3 1.4-0.2 2.4-1.5 2.3-2.9-0.2-1.4-1.5-2.5-2.9-2.3-1.4 0.2-2.5 1.4-2.3 2.9z"/>
					<path id="&lt;Path&gt;" class="s6" d="m297.1 180.3c0.1 1 1.1 1.8 2.2 1.7 1.1-0.1 1.9-1.1 1.7-2.2-0.1-1-1.1-1.8-2.1-1.7-1.1 0.1-1.9 1.1-1.8 2.2z"/>
					<path id="&lt;Path&gt;" class="s6" d="m261.6 173c0.1 1.1 1.1 1.9 2.2 1.8 1.1-0.2 1.8-1.1 1.7-2.2-0.1-1.1-1.1-1.9-2.1-1.7-1.1 0.1-1.9 1.1-1.8 2.1z"/>
					<path id="&lt;Path&gt;" class="s5" d="m264.6 186.5c0.1 1.5 1.4 2.5 2.8 2.3 1.5-0.1 2.5-1.4 2.3-2.8-0.1-1.5-1.4-2.5-2.8-2.3-1.5 0.1-2.5 1.4-2.3 2.8z"/>
					<path id="&lt;Path&gt;" class="s5" d="m305.9 198.7c0 0-6.9-9.7-16.8-3.7"/>
				</g>
			</g>
		</g>
	</g>
</svg>